/* XPM */
static char *billard_gl_32x32[] = {
/* columns rows colors chars-per-pixel */
"32 32 187 2 ",
"   c #01EB01EE01E7",
".  c #0B170B090B01",
"X  c #1CA71C9D1C9E",
"o  c #2D6F1E3901CF",
"O  c #21F021EB21EB",
"+  c #2C222C222C26",
"@  c #340734043406",
"#  c #3C4F3C3D3C44",
"$  c #40F32B7801DB",
"%  c #4BA6320F016C",
"&  c #52C136F8017D",
"*  c #55E639520313",
"=  c #5D5A3DCB015B",
"-  c #53803CFE12B2",
";  c #645542350141",
":  c #689344F40168",
">  c #6DE749320363",
",  c #72B34B9900FC",
"<  c #7C0E51B900C8",
"1  c #65E848F111F4",
"2  c #552A4981340E",
"3  c #44CC44CA44C9",
"4  c #49EE48534681",
"5  c #4A774A464A3D",
"6  c #54D054945484",
"7  c #5BAF5B845B76",
"8  c #64456438642C",
"9  c #6B1D676C606E",
"0  c #6CC56CC06CCE",
"q  c #777874656E9D",
"w  c #72E972CC72C5",
"e  c #784976EF7448",
"r  c #7CB47CA27C9F",
"t  c #8C375BF70074",
"y  c #90F15F1E0049",
"u  c #945961580064",
"i  c #9D506755003D",
"p  c #9E6D680B0161",
"a  c #8F64659614FF",
"s  c #A47D6BE10015",
"d  c #A8E16EBF0000",
"f  c #A0D16BFD07DC",
"g  c #ABED7142015E",
"h  c #B54576E50003",
"j  c #BBE07B5E0001",
"k  c #914D73D43B6E",
"l  c #A8757DB82B83",
"z  c #C2587FBC0000",
"x  c #BF269074374D",
"c  c #C431817201C4",
"v  c #CC2B86320000",
"b  c #CF91884D0000",
"n  c #D41D8BA70068",
"m  c #D9D78F2A0000",
"M  c #DD4991750065",
"N  c #DC2696270F88",
"B  c #E49E962D0000",
"V  c #E77098B60155",
"C  c #ED2D9C2E0000",
"Z  c #F1739F4D0000",
"A  c #F635A3170000",
"S  c #F93CA6390000",
"D  c #FD1CABB90028",
"F  c #FC0CADC00B55",
"G  c #FF95B32E0001",
"H  c #FFFFBCF40061",
"J  c #FF69B54A0920",
"K  c #ED95A6851D49",
"L  c #FD11B2931550",
"P  c #FFCAB8B5124A",
"I  c #FE1CB802207E",
"U  c #FF24BE772EE8",
"Y  c #FFFFC4710000",
"T  c #FFFFCCD10006",
"R  c #FFFFCBE607AE",
"E  c #FFFFD40F0000",
"W  c #FFFFDB370063",
"Q  c #FFFFC50611CF",
"!  c #FFFFCB4D119A",
"~  c #FFFFC5891941",
"^  c #FFFFD430111A",
"/  c #FFFFDE361E3F",
"(  c #FFFFE4320037",
")  c #FFFFEC4E0000",
"_  c #FFFFE4A50E06",
"`  c #FFFFE9C30A2E",
"'  c #FFFFF401004F",
"]  c #FFFFFA8100C4",
"[  c #FFFFFAE70D76",
"{  c #FFFFF4FE1086",
"}  c #FFFFFA181497",
"|  c #FFFFFAA8195A",
" . c #FFE5C23D2667",
".. c #FFB0C294350D",
"X. c #FFDEC5D5385F",
"o. c #FFFFCE693B73",
"O. c #FFFFD74D333C",
"+. c #FFFFE2F92A0D",
"@. c #FFFFF5FA242D",
"#. c #FFFFF3F5370E",
"$. c #FFFFFB4233E4",
"%. c #BB64955B4B39",
"&. c #B98698CC58E0",
"*. c #8EAD84336FB8",
"=. c #AA0795296D61",
"-. c #EDF6B3A841EB",
";. c #F120B7AE46AD",
":. c #F501BCA34BBE",
">. c #F20CC0175CA2",
",. c #C6FDAB6575CA",
"<. c #CF54B2237A01",
"1. c #D4A8B3C8758F",
"2. c #FFFFD4B5456A",
"3. c #FFB9CE455C86",
"4. c #FFFFD37F54A1",
"5. c #FFFFD53F59B2",
"6. c #FFFFE4CD4116",
"7. c #FFFFEC564F42",
"8. c #FFFFF2694BEC",
"9. c #FFFFF0C451E2",
"0. c #FFFFF63D5D4B",
"q. c #FFFFF9485BC3",
"w. c #FFAFD7266A6D",
"e. c #FFFFDD2D7AF4",
"r. c #FFFFE6B765C7",
"t. c #FFFFE5746D4B",
"y. c #FFFFEEDB6F72",
"u. c #FFFFFAD7612F",
"i. c #FFFFF9937217",
"p. c #FFFFF4CB7FFF",
"a. c #FFFFFC7B7E45",
"s. c #81CE81B58195",
"d. c #8BF98BDE8BD9",
"f. c #9445944D9474",
"g. c #9BDD9BDA9BD4",
"h. c #A757A47D9F46",
"j. c #A468A48EA4F9",
"k. c #AB77AB75AB8B",
"l. c #B4CAB4DFB506",
"z. c #BCAEBC97BC78",
"x. c #CE82BEA9A007",
"c. c #F316CFCE84FE",
"v. c #FB21D88A860B",
"b. c #FFFFF41685C4",
"n. c #FFFFE81098C2",
"m. c #FFFFE8799C92",
"M. c #FFFFF5669374",
"N. c #FFFFFC7A975D",
"B. c #DF7BCC99A885",
"V. c #D45DC910B2E4",
"C. c #FFFFE8CDAA1D",
"Z. c #FFFFF141A40E",
"A. c #FFFFFC08AEB0",
"S. c #FFF2EC4BB4B9",
"D. c #FED4ED02BA9E",
"F. c #FFFFF333BA0D",
"G. c #FFFFFCE5BBFA",
"H. c #C39EC3A3C3B8",
"J. c #CDF3CDFDCDF8",
"K. c #D3C8CF6AC6E5",
"L. c #D054D054D033",
"P. c #D529D540D551",
"I. c #D779D86EDAE9",
"U. c #DBE4DBF6DC1E",
"Y. c #E05BE061E052",
"T. c #FA49E8BAC0B6",
"R. c #F3C8E847CABD",
"E. c #FB7FEED7CC33",
"W. c #FFFFF1CBC683",
"Q. c #FFFFFE63C3B9",
"!. c #FFFFF477CE60",
"~. c #FFFFFC09CBAE",
"^. c #E804E0E6D1CE",
"/. c #FFFFF5CCD251",
"(. c #FFFFFA5BD2D6",
"). c #FFC3F6A5DC47",
"_. c #FFFFFCC8DF4F",
"`. c #E4D8E505E551",
"'. c #ED15ED2EED2F",
"]. c #F181EFBCEA34",
"[. c #FF7EFD82E493",
"{. c #FD59FA92ED6E",
"}. c #F489F494F47A",
"|. c #FF8EFE07F40C",
" X c #F6F9F77DF8D1",
".X c #FF6FFF6CFF39",
"XX c None",
/* pixels */
"XXXXXXXXXXXXXXXXXXXXXXXX6 3 7 8 8 7 3 6 XXXXXXXXXXXXXXXXXXXXXXXX",
"XXXXXXXXXXXXXXXXXX3 w r f.j.k.k.k.k.j.f.e 9 XXXXXXXXXXXXXXXXXXXX",
"XXXXXXXXXXXXXXXX0 d.k.z.H.L.L.I.P.K.x.,.%.l a > XXXXXXXXXXXXXXXX",
"XXXXXXXXXXXX7 s.k.H.L.U.`.}.].R.c.;.K B M b j d < * XXXXXXXXXXXX",
"XXXXXXXXXX0 f.l.L.Y.'. X{.D.w.X...U I F A C M v h y ; XXXXXXXXXX",
"XXXXXXXX0 f.z.P.`. X|.S.5.o.e.S./.).!.C.3.L A V n j u ; XXXXXXXX",
"XXXXXX6 f.z.U.'.{.D.4.Q 2.W..X.X.X XI.`.|.S...D C m j y % XXXXXX",
"XXXXXXs.l.P.'.E.w.~ Y O./..X.X.X`.0 + # j. XE...S C b h < XXXXXX",
"XXXXw k.L.^.v. .H Y ^ Z..X}.`..Xg.. 4 # @ I..XS.P S V v s ; XXXX",
"XXXXd.z.B.:.J H T T 6.[.H.7 4 L.j.3 J.0 X k. X|.4.G A M j t XXXX",
"XX0 h.<.K D H Y E E y. X0 X   0 '.'.P.3 O X g..Xn.J D C v s ; XX",
"XXq &.N A G H T E ( b..XU.z.# O L..X}.L.H.3 @ Y.F.Q G A m j > XX",
"XXk c V D H Y E W ( b..X.X.XH.. 0 }.g.d.l.@ + U.F.! J D B z t XX",
"- f v C D H T E W ) 0.|..X.X`.# O H.0 . . . w  XZ.R H D C v i % ",
"* d n Z G H T W ( ( @.(..X.X.Xg.. w U.f.w g.'.|.r.T H G Z b s % ",
"= g m Z G H T W ( ) ' i.|..X.X'.3 8  X.X.X.X.X~./ T H G Z n g * ",
"; d n Z G Y T E ( ) ' { N.|..X.X`.`..X.X.X.X_.7.W T Q X.>.1.=.2 ",
"= d n Z G Y T W ( ) ) ] } a.[..X.X.X.X.X|.(.9._ +.t.C.).'.L.k.5 ",
"% s b Z D H T E W ( ) ] ] ] $.a.A.Q.Q.A.i.#.9.M._..X.X.X'.J.g.4 ",
"& y c V D H Y E W ( ) ' ] ] ] ] [ | | @.q.A.{..X.X.X.X.X`.J.d.XX",
"XX< j B S G Y T W W ) ) ' ] ] ] ] | u.G.|..X.X.X.X.X.X XU.z.w XX",
"XX, g b Z D H Y E W ( ( ) ' ' { q.G.|..X.X.X.X.X.X.X.X'.L.k.8 XX",
"XX& y c B S G H Y E W ( ( ` 9.A.|..X.X.X.X.X.X.X.X.X XY.z.f.XXXX",
"XXXX, g b C D H Y T E W +.M.[..X.X.X.X.X.X.X.X.X.X.X'.L.k.w XXXX",
"XXXX$ t j m Z D H H ! r.(..X.X.X.X.X.X.X.X.X.X.X.X'.P.z.s.XXXXXX",
"XXXXXX: i z M Z S U n.|..X.X.X.X.X.X.X.X.X.X.X.X}.U.H.g.7 XXXXXX",
"XXXXXXXX; s c m -.D..X.X.X.X.X.X.X.X.X.X.X.X.X'.U.z.g.w XXXXXXXX",
"XXXXXXXXo ; i x V.`.}..X.X.X.X.X.X.X.X.X.X}.`.L.z.g.w XXXXXXXXXX",
"XXXXXXXXXXXX1 *.k.H.U.`.'.}. X.X.X X].'.Y.P.H.l.d.8 XXXXXXXXXXXX",
"XXXXXXXXXXXXXX4 r g.l.H.L.L.U.U.U.U.P.L.H.l.g.w 3 XXXXXXXXXXXXXX",
"XXXXXXXXXXXXXXXXXX7 0 d.j.k.l.l.l.l.k.j.d.0 6 XXXXXXXXXXXXXXXXXX",
"XXXXXXXXXXXXXXXXXXXXXXXX4 7 w r r w 7 3 XXXXXXXXXXXXXXXXXXXXXXXX"
};
